<svg xmlns="http://www.w3.org/2000/svg" viewBox="0 0 32 32" shape-rendering="crispEdges">
  <rect width="32" height="32" rx="6" fill="#0B0B0C"/>
  <rect x="12.250" y="1.000" width="1.520" height="1.520" fill="#F2F0EB"/>
  <rect x="13.750" y="1.000" width="1.520" height="1.520" fill="#F2F0EB"/>
  <rect x="15.250" y="1.000" width="1.520" height="1.520" fill="#F2F0EB"/>
  <rect x="16.750" y="1.000" width="1.520" height="1.520" fill="#F2F0EB"/>
  <rect x="18.250" y="1.000" width="1.520" height="1.520" fill="#F2F0EB"/>
  <rect x="9.250" y="2.500" width="1.520" height="1.520" fill="#F2F0EB"/>
  <rect x="10.750" y="2.500" width="1.520" height="1.520" fill="#F2F0EB"/>
  <rect x="12.250" y="2.500" width="1.520" height="1.520" fill="#F2F0EB"/>
  <rect x="13.750" y="2.500" width="1.520" height="1.520" fill="#F2F0EB"/>
  <rect x="15.250" y="2.500" width="1.520" height="1.520" fill="#F2F0EB"/>
  <rect x="16.750" y="2.500" width="1.520" height="1.520" fill="#F2F0EB"/>
  <rect x="18.250" y="2.500" width="1.520" height="1.520" fill="#F2F0EB"/>
  <rect x="19.750" y="2.500" width="1.520" height="1.520" fill="#F2F0EB"/>
  <rect x="21.250" y="2.500" width="1.520" height="1.520" fill="#F2F0EB"/>
  <rect x="7.750" y="4.000" width="1.520" height="1.520" fill="#F2F0EB"/>
  <rect x="9.250" y="4.000" width="1.520" height="1.520" fill="#F2F0EB"/>
  <rect x="10.750" y="4.000" width="1.520" height="1.520" fill="#F2F0EB"/>
  <rect x="12.250" y="4.000" width="1.520" height="1.520" fill="#F2F0EB"/>
  <rect x="13.750" y="4.000" width="1.520" height="1.520" fill="#F2F0EB"/>
  <rect x="15.250" y="4.000" width="1.520" height="1.520" fill="#F2F0EB"/>
  <rect x="16.750" y="4.000" width="1.520" height="1.520" fill="#F2F0EB"/>
  <rect x="18.250" y="4.000" width="1.520" height="1.520" fill="#F2F0EB"/>
  <rect x="19.750" y="4.000" width="1.520" height="1.520" fill="#F2F0EB"/>
  <rect x="21.250" y="4.000" width="1.520" height="1.520" fill="#F2F0EB"/>
  <rect x="22.750" y="4.000" width="1.520" height="1.520" fill="#F2F0EB"/>
  <rect x="6.250" y="5.500" width="1.520" height="1.520" fill="#F2F0EB"/>
  <rect x="7.750" y="5.500" width="1.520" height="1.520" fill="#F2F0EB"/>
  <rect x="9.250" y="5.500" width="1.520" height="1.520" fill="#F2F0EB"/>
  <rect x="10.750" y="5.500" width="1.520" height="1.520" fill="#F2F0EB"/>
  <rect x="12.250" y="5.500" width="1.520" height="1.520" fill="#F2F0EB"/>
  <rect x="13.750" y="5.500" width="1.520" height="1.520" fill="#F2F0EB"/>
  <rect x="15.250" y="5.500" width="1.520" height="1.520" fill="#F2F0EB"/>
  <rect x="16.750" y="5.500" width="1.520" height="1.520" fill="#F2F0EB"/>
  <rect x="18.250" y="5.500" width="1.520" height="1.520" fill="#F2F0EB"/>
  <rect x="19.750" y="5.500" width="1.520" height="1.520" fill="#F2F0EB"/>
  <rect x="21.250" y="5.500" width="1.520" height="1.520" fill="#F2F0EB"/>
  <rect x="22.750" y="5.500" width="1.520" height="1.520" fill="#F2F0EB"/>
  <rect x="24.250" y="5.500" width="1.520" height="1.520" fill="#F2F0EB"/>
  <rect x="4.750" y="7.000" width="1.520" height="1.520" fill="#F2F0EB"/>
  <rect x="6.250" y="7.000" width="1.520" height="1.520" fill="#F2F0EB"/>
  <rect x="7.750" y="7.000" width="1.520" height="1.520" fill="#F2F0EB"/>
  <rect x="9.250" y="7.000" width="1.520" height="1.520" fill="#F2F0EB"/>
  <rect x="10.750" y="7.000" width="1.520" height="1.520" fill="#F2F0EB"/>
  <rect x="12.250" y="7.000" width="1.520" height="1.520" fill="#F2F0EB"/>
  <rect x="13.750" y="7.000" width="1.520" height="1.520" fill="#F2F0EB"/>
  <rect x="15.250" y="7.000" width="1.520" height="1.520" fill="#F2F0EB"/>
  <rect x="16.750" y="7.000" width="1.520" height="1.520" fill="#F2F0EB"/>
  <rect x="18.250" y="7.000" width="1.520" height="1.520" fill="#F2F0EB"/>
  <rect x="19.750" y="7.000" width="1.520" height="1.520" fill="#F2F0EB"/>
  <rect x="21.250" y="7.000" width="1.520" height="1.520" fill="#F2F0EB"/>
  <rect x="22.750" y="7.000" width="1.520" height="1.520" fill="#F2F0EB"/>
  <rect x="24.250" y="7.000" width="1.520" height="1.520" fill="#F2F0EB"/>
  <rect x="25.750" y="7.000" width="1.520" height="1.520" fill="#F2F0EB"/>
  <rect x="4.750" y="8.500" width="1.520" height="1.520" fill="#F2F0EB"/>
  <rect x="6.250" y="8.500" width="1.520" height="1.520" fill="#F2F0EB"/>
  <rect x="7.750" y="8.500" width="1.520" height="1.520" fill="#F2F0EB"/>
  <rect x="9.250" y="8.500" width="1.520" height="1.520" fill="#F2F0EB"/>
  <rect x="10.750" y="8.500" width="1.520" height="1.520" fill="#F2F0EB"/>
  <rect x="12.250" y="8.500" width="1.520" height="1.520" fill="#F2F0EB"/>
  <rect x="13.750" y="8.500" width="1.520" height="1.520" fill="#F2F0EB"/>
  <rect x="15.250" y="8.500" width="1.520" height="1.520" fill="#F2F0EB"/>
  <rect x="16.750" y="8.500" width="1.520" height="1.520" fill="#F2F0EB"/>
  <rect x="18.250" y="8.500" width="1.520" height="1.520" fill="#F2F0EB"/>
  <rect x="19.750" y="8.500" width="1.520" height="1.520" fill="#F2F0EB"/>
  <rect x="21.250" y="8.500" width="1.520" height="1.520" fill="#F2F0EB"/>
  <rect x="22.750" y="8.500" width="1.520" height="1.520" fill="#F2F0EB"/>
  <rect x="24.250" y="8.500" width="1.520" height="1.520" fill="#F2F0EB"/>
  <rect x="25.750" y="8.500" width="1.520" height="1.520" fill="#F2F0EB"/>
  <rect x="4.750" y="10.000" width="1.520" height="1.520" fill="#F2F0EB"/>
  <rect x="6.250" y="10.000" width="1.520" height="1.520" fill="#F2F0EB"/>
  <rect x="12.250" y="10.000" width="1.520" height="1.520" fill="#F2F0EB"/>
  <rect x="13.750" y="10.000" width="1.520" height="1.520" fill="#F2F0EB"/>
  <rect x="15.250" y="10.000" width="1.520" height="1.520" fill="#F2F0EB"/>
  <rect x="16.750" y="10.000" width="1.520" height="1.520" fill="#F2F0EB"/>
  <rect x="18.250" y="10.000" width="1.520" height="1.520" fill="#F2F0EB"/>
  <rect x="24.250" y="10.000" width="1.520" height="1.520" fill="#F2F0EB"/>
  <rect x="25.750" y="10.000" width="1.520" height="1.520" fill="#F2F0EB"/>
  <rect x="4.750" y="11.500" width="1.520" height="1.520" fill="#F2F0EB"/>
  <rect x="13.750" y="11.500" width="1.520" height="1.520" fill="#F2F0EB"/>
  <rect x="15.250" y="11.500" width="1.520" height="1.520" fill="#F2F0EB"/>
  <rect x="16.750" y="11.500" width="1.520" height="1.520" fill="#F2F0EB"/>
  <rect x="25.750" y="11.500" width="1.520" height="1.520" fill="#F2F0EB"/>
  <rect x="4.750" y="13.000" width="1.520" height="1.520" fill="#F2F0EB"/>
  <rect x="13.750" y="13.000" width="1.520" height="1.520" fill="#F2F0EB"/>
  <rect x="15.250" y="13.000" width="1.520" height="1.520" fill="#F2F0EB"/>
  <rect x="16.750" y="13.000" width="1.520" height="1.520" fill="#F2F0EB"/>
  <rect x="25.750" y="13.000" width="1.520" height="1.520" fill="#F2F0EB"/>
  <rect x="4.750" y="14.500" width="1.520" height="1.520" fill="#F2F0EB"/>
  <rect x="13.750" y="14.500" width="1.520" height="1.520" fill="#F2F0EB"/>
  <rect x="15.250" y="14.500" width="1.520" height="1.520" fill="#F2F0EB"/>
  <rect x="16.750" y="14.500" width="1.520" height="1.520" fill="#F2F0EB"/>
  <rect x="25.750" y="14.500" width="1.520" height="1.520" fill="#F2F0EB"/>
  <rect x="4.750" y="16.000" width="1.520" height="1.520" fill="#F2F0EB"/>
  <rect x="13.750" y="16.000" width="1.520" height="1.520" fill="#F2F0EB"/>
  <rect x="15.250" y="16.000" width="1.520" height="1.520" fill="#F2F0EB"/>
  <rect x="16.750" y="16.000" width="1.520" height="1.520" fill="#F2F0EB"/>
  <rect x="25.750" y="16.000" width="1.520" height="1.520" fill="#F2F0EB"/>
  <rect x="4.750" y="17.500" width="1.520" height="1.520" fill="#F2F0EB"/>
  <rect x="6.250" y="17.500" width="1.520" height="1.520" fill="#F2F0EB"/>
  <rect x="12.250" y="17.500" width="1.520" height="1.520" fill="#F2F0EB"/>
  <rect x="13.750" y="17.500" width="1.520" height="1.520" fill="#F2F0EB"/>
  <rect x="15.250" y="17.500" width="1.520" height="1.520" fill="#F2F0EB"/>
  <rect x="16.750" y="17.500" width="1.520" height="1.520" fill="#F2F0EB"/>
  <rect x="18.250" y="17.500" width="1.520" height="1.520" fill="#F2F0EB"/>
  <rect x="24.250" y="17.500" width="1.520" height="1.520" fill="#F2F0EB"/>
  <rect x="25.750" y="17.500" width="1.520" height="1.520" fill="#F2F0EB"/>
  <rect x="4.750" y="19.000" width="1.520" height="1.520" fill="#F2F0EB"/>
  <rect x="6.250" y="19.000" width="1.520" height="1.520" fill="#F2F0EB"/>
  <rect x="7.750" y="19.000" width="1.520" height="1.520" fill="#F2F0EB"/>
  <rect x="9.250" y="19.000" width="1.520" height="1.520" fill="#F2F0EB"/>
  <rect x="10.750" y="19.000" width="1.520" height="1.520" fill="#F2F0EB"/>
  <rect x="12.250" y="19.000" width="1.520" height="1.520" fill="#F2F0EB"/>
  <rect x="13.750" y="19.000" width="1.520" height="1.520" fill="#F2F0EB"/>
  <rect x="15.250" y="19.000" width="1.520" height="1.520" fill="#F2F0EB"/>
  <rect x="16.750" y="19.000" width="1.520" height="1.520" fill="#F2F0EB"/>
  <rect x="18.250" y="19.000" width="1.520" height="1.520" fill="#F2F0EB"/>
  <rect x="19.750" y="19.000" width="1.520" height="1.520" fill="#F2F0EB"/>
  <rect x="21.250" y="19.000" width="1.520" height="1.520" fill="#F2F0EB"/>
  <rect x="22.750" y="19.000" width="1.520" height="1.520" fill="#F2F0EB"/>
  <rect x="24.250" y="19.000" width="1.520" height="1.520" fill="#F2F0EB"/>
  <rect x="25.750" y="19.000" width="1.520" height="1.520" fill="#F2F0EB"/>
  <rect x="9.250" y="20.500" width="1.520" height="1.520" fill="#F2F0EB"/>
  <rect x="10.750" y="20.500" width="1.520" height="1.520" fill="#F2F0EB"/>
  <rect x="12.250" y="20.500" width="1.520" height="1.520" fill="#F2F0EB"/>
  <rect x="18.250" y="20.500" width="1.520" height="1.520" fill="#F2F0EB"/>
  <rect x="19.750" y="20.500" width="1.520" height="1.520" fill="#F2F0EB"/>
  <rect x="21.250" y="20.500" width="1.520" height="1.520" fill="#F2F0EB"/>
  <rect x="9.250" y="22.000" width="1.520" height="1.520" fill="#F2F0EB"/>
  <rect x="10.750" y="22.000" width="1.520" height="1.520" fill="#F2F0EB"/>
  <rect x="12.250" y="22.000" width="1.520" height="1.520" fill="#F2F0EB"/>
  <rect x="13.750" y="22.000" width="1.520" height="1.520" fill="#F2F0EB"/>
  <rect x="16.750" y="22.000" width="1.520" height="1.520" fill="#F2F0EB"/>
  <rect x="18.250" y="22.000" width="1.520" height="1.520" fill="#F2F0EB"/>
  <rect x="19.750" y="22.000" width="1.520" height="1.520" fill="#F2F0EB"/>
  <rect x="21.250" y="22.000" width="1.520" height="1.520" fill="#F2F0EB"/>
  <rect x="9.250" y="23.500" width="1.520" height="1.520" fill="#F2F0EB"/>
  <rect x="10.750" y="23.500" width="1.520" height="1.520" fill="#F2F0EB"/>
  <rect x="12.250" y="23.500" width="1.520" height="1.520" fill="#F2F0EB"/>
  <rect x="13.750" y="23.500" width="1.520" height="1.520" fill="#F2F0EB"/>
  <rect x="15.250" y="23.500" width="1.520" height="1.520" fill="#F2F0EB"/>
  <rect x="16.750" y="23.500" width="1.520" height="1.520" fill="#F2F0EB"/>
  <rect x="18.250" y="23.500" width="1.520" height="1.520" fill="#F2F0EB"/>
  <rect x="19.750" y="23.500" width="1.520" height="1.520" fill="#F2F0EB"/>
  <rect x="21.250" y="23.500" width="1.520" height="1.520" fill="#F2F0EB"/>
  <rect x="9.250" y="25.000" width="1.520" height="1.520" fill="#F2F0EB"/>
  <rect x="12.250" y="25.000" width="1.520" height="1.520" fill="#F2F0EB"/>
  <rect x="15.250" y="25.000" width="1.520" height="1.520" fill="#F2F0EB"/>
  <rect x="18.250" y="25.000" width="1.520" height="1.520" fill="#F2F0EB"/>
  <rect x="21.250" y="25.000" width="1.520" height="1.520" fill="#F2F0EB"/>
  <rect x="9.250" y="26.500" width="1.520" height="1.520" fill="#F2F0EB"/>
  <rect x="10.750" y="26.500" width="1.520" height="1.520" fill="#F2F0EB"/>
  <rect x="13.750" y="26.500" width="1.520" height="1.520" fill="#F2F0EB"/>
  <rect x="16.750" y="26.500" width="1.520" height="1.520" fill="#F2F0EB"/>
  <rect x="19.750" y="26.500" width="1.520" height="1.520" fill="#F2F0EB"/>
  <rect x="21.250" y="26.500" width="1.520" height="1.520" fill="#F2F0EB"/>
  <rect x="9.250" y="28.000" width="1.520" height="1.520" fill="#F2F0EB"/>
  <rect x="10.750" y="28.000" width="1.520" height="1.520" fill="#F2F0EB"/>
  <rect x="12.250" y="28.000" width="1.520" height="1.520" fill="#F2F0EB"/>
  <rect x="13.750" y="28.000" width="1.520" height="1.520" fill="#F2F0EB"/>
  <rect x="15.250" y="28.000" width="1.520" height="1.520" fill="#F2F0EB"/>
  <rect x="16.750" y="28.000" width="1.520" height="1.520" fill="#F2F0EB"/>
  <rect x="18.250" y="28.000" width="1.520" height="1.520" fill="#F2F0EB"/>
  <rect x="19.750" y="28.000" width="1.520" height="1.520" fill="#F2F0EB"/>
  <rect x="21.250" y="28.000" width="1.520" height="1.520" fill="#F2F0EB"/>
  <rect x="10.750" y="29.500" width="1.520" height="1.520" fill="#F2F0EB"/>
  <rect x="12.250" y="29.500" width="1.520" height="1.520" fill="#F2F0EB"/>
  <rect x="13.750" y="29.500" width="1.520" height="1.520" fill="#F2F0EB"/>
  <rect x="15.250" y="29.500" width="1.520" height="1.520" fill="#F2F0EB"/>
  <rect x="16.750" y="29.500" width="1.520" height="1.520" fill="#F2F0EB"/>
  <rect x="18.250" y="29.500" width="1.520" height="1.520" fill="#F2F0EB"/>
  <rect x="19.750" y="29.500" width="1.520" height="1.520" fill="#F2F0EB"/>
</svg>
